<?xml version="1.0" encoding="UTF-8"?>
<svg width="512px" height="512px" viewBox="0 0 512 512" version="1.1" xmlns="http://www.w3.org/2000/svg" xmlns:xlink="http://www.w3.org/1999/xlink">
    <!-- Generator: Sketch 63.1 (92452) - https://sketch.com -->
    <title>flickr-icon</title>
    <desc>Created with Sketch.</desc>
    <g id="Page-v3" stroke="none" stroke-width="1" fill="none" fill-rule="evenodd">
        <g id="social" transform="translate(-2574.000000, -155.000000)" fill="#000000" fill-rule="nonzero">
            <g transform="translate(222.000000, 155.000000)" id="flickr">
                <g transform="translate(2352.000000, 136.000000)">
                    <path d="M495.967,120 C495.967,176.876 449.695,223.148 392.819,223.148 C376.019,223.148 360.003,219.24 345.215,211.532 C341.291,209.486 336.447,211.009 334.401,214.936 C332.354,218.862 333.878,223.704 337.805,225.75 C354.663,234.536 373.687,239.181 392.819,239.181 C458.535,239.181 512,185.717 512,120 L495.967,120 Z" id="Path"></path>
                    <path d="M310.307,206.001 C313.501,209.066 318.576,208.963 321.642,205.768 L310.307,206.001 Z" id="Path"></path>
                    <path d="M392.818,0.818 C327.101,0.818 273.636,54.283 273.636,120 C273.636,152.765 286.659,183.307 310.307,206.001 C313.501,209.066 318.576,208.963 321.642,205.768 C324.708,202.574 324.604,197.499 321.409,194.433 C300.942,174.792 289.67,148.358 289.67,120 C289.67,63.124 335.942,16.852 392.818,16.852 C449.694,16.852 495.966,63.124 495.966,120 C495.966,176.876 449.694,223.148 392.818,223.148 C376.018,223.148 360.002,219.24 345.214,211.532 C341.29,209.486 336.446,211.009 334.4,214.936 C332.353,218.862 333.877,223.704 337.804,225.75 C354.662,234.536 373.686,239.181 392.818,239.181 C458.535,239.181 512,185.717 512,120 C512,54.283 458.535,0.818 392.818,0.818 Z" id="Path"></path>
                    <path d="M213.123,46.649 C210.396,43.162 205.357,42.545 201.87,45.271 C198.382,47.998 197.765,53.037 200.492,56.524 C214.779,74.796 222.329,96.745 222.329,119.999 C222.329,176.875 176.057,223.147 119.181,223.147 C62.305,223.147 16.033,176.875 16.033,119.999 C16.033,63.123 62.305,16.851 119.181,16.851 C143.227,16.851 166.633,25.303 185.088,40.649 C188.492,43.482 193.548,43.016 196.378,39.611 C199.208,36.207 198.743,31.152 195.34,28.321 C174.011,10.585 146.964,0.817 119.181,0.817 C53.465,0.817 0,54.283 0,120 C0,185.717 53.465,239.182 119.182,239.182 C184.899,239.182 238.363,185.717 238.363,120 C238.363,93.132 229.636,67.768 213.123,46.649 Z" id="Path"></path>
                    <path d="M392.818,35.023 C388.391,35.023 384.801,38.612 384.801,43.04 C384.801,47.468 388.39,51.057 392.818,51.057 C430.833,51.057 461.762,81.985 461.762,120.001 C461.762,124.428 465.351,128.018 469.779,128.018 C474.206,128.018 477.796,124.429 477.796,120.001 C477.795,73.144 439.674,35.023 392.818,35.023 Z" id="Path"></path>
                    <path d="M119.182,35.023 C114.755,35.023 111.165,38.612 111.165,43.04 C111.165,47.468 114.754,51.057 119.182,51.057 C157.197,51.057 188.126,81.985 188.126,120.001 C188.126,124.428 191.715,128.018 196.143,128.018 C200.571,128.018 204.16,124.429 204.16,120.001 C204.159,73.144 166.038,35.023 119.182,35.023 Z" id="Path"></path>
                </g>
            </g>
        </g>
    </g>
</svg>