<?xml version="1.0" encoding="UTF-8"?>
<svg width="512px" height="512px" viewBox="0 0 512 512" version="1.1" xmlns="http://www.w3.org/2000/svg" xmlns:xlink="http://www.w3.org/1999/xlink">
    <!-- Generator: Sketch 63.1 (92452) - https://sketch.com -->
    <title>flickr-icon-hover</title>
    <desc>Created with Sketch.</desc>
    <g id="Page-v3" stroke="none" stroke-width="1" fill="none" fill-rule="evenodd">
        <g id="social" transform="translate(-2574.000000, -931.000000)" fill-rule="nonzero">
            <g id="social-over" transform="translate(222.000000, 931.000000)">
                <g id="flickr-over" transform="translate(2352.000000, 137.000000)">
                    <circle id="Oval" fill="#6E87F5" cx="121.961" cy="123.002" r="112.01"></circle>
                    <circle id="Oval" fill="#E68CBE" cx="389.994" cy="123.002" r="112.01"></circle>
                    <path d="M121.965,244.954 C90.721,244.954 59.477,233.061 35.691,209.275 C2.284,175.869 -8.853,125.586 7.319,81.177 C9.209,75.988 14.95,73.313 20.138,75.201 C25.327,77.091 28.004,82.83 26.114,88.02 C12.592,125.155 21.903,167.198 49.835,195.13 C89.608,234.903 154.324,234.902 194.097,195.13 C233.87,155.357 233.87,90.641 194.097,50.869 C163.963,20.735 117.745,12.512 79.09,30.406 C74.078,32.727 68.133,30.544 65.813,25.532 C63.493,20.52 65.675,14.575 70.687,12.255 C116.922,-9.149 172.201,0.686 208.241,36.725 C255.812,84.297 255.812,161.702 208.241,209.274 C184.454,233.061 153.209,244.954 121.965,244.954 Z" id="Path" fill="#000000"></path>
                    <path d="M42.763,53.798 C40.208,53.798 37.654,52.825 35.7,50.879 C31.789,46.979 31.781,40.646 35.68,36.735 L36.271,36.148 C40.202,32.269 46.535,32.312 50.414,36.246 C54.292,40.178 54.248,46.51 50.316,50.389 L49.843,50.86 C47.89,52.818 45.326,53.798 42.763,53.798 Z" id="Path" fill="#000000"></path>
                    <path d="M389.99,245.011 C322.713,245.011 267.98,190.277 267.98,123.001 C267.98,55.725 322.714,0.991 389.99,0.991 C457.266,0.991 512,55.723 512,123 C512,190.277 457.266,245.011 389.99,245.011 Z M389.99,20.991 C333.742,20.991 287.981,66.752 287.981,123 C287.981,179.248 333.742,225.009 389.99,225.009 C446.238,225.009 491.998,179.248 491.998,123 C491.998,66.752 446.237,20.991 389.99,20.991 Z" id="Shape" fill="#000000"></path>
                    <path d="M458.327,133.001 C452.804,133.001 448.326,128.524 448.326,123 C448.326,103.11 438.338,84.779 421.607,73.965 C416.969,70.966 415.638,64.775 418.637,60.137 C421.636,55.499 427.827,54.17 432.465,57.167 C454.921,71.682 468.327,96.293 468.327,123.001 C468.328,128.524 463.851,133.001 458.327,133.001 Z" id="Path" fill="#000000"></path>
                    <path d="M390.428,64.664 C390.405,64.664 390.382,64.664 390.36,64.664 L389.99,64.663 C384.467,64.663 379.989,60.186 379.989,54.662 C379.989,49.139 384.466,44.661 389.99,44.661 L390.494,44.662 C396.017,44.699 400.465,49.206 400.428,54.73 C400.391,60.231 395.92,64.664 390.428,64.664 Z" id="Path" fill="#000000"></path>
                </g>
            </g>
        </g>
    </g>
</svg>