<?xml version="1.0" encoding="UTF-8"?>
<svg width="512px" height="512px" viewBox="0 0 512 512" version="1.1" xmlns="http://www.w3.org/2000/svg" xmlns:xlink="http://www.w3.org/1999/xlink">
    <!-- Generator: Sketch 63.1 (92452) - https://sketch.com -->
    <title>linkedin-icon</title>
    <desc>Created with Sketch.</desc>
    <g id="Page-v3" stroke="none" stroke-width="1" fill="none" fill-rule="evenodd">
        <g id="social" transform="translate(-961.000000, -155.000000)" fill="#000000" fill-rule="nonzero">
            <g transform="translate(222.000000, 155.000000)" id="linkedin">
                <g transform="translate(739.000000, 0.000000)">
                    <path d="M382,492 L30,492 C24.484375,492 20,487.515625 20,482 L20,30 C20,24.484375 24.484375,20 30,20 L50,20 C55.523438,20 60,15.523438 60,10 C60,4.476562 55.523438,0 50,0 L30,0 C13.457031,0 0,13.457031 0,30 L0,482 C0,498.542969 13.457031,512 30,512 L382,512 C387.519531,512 392,507.523438 392,502 C392,496.476562 387.523438,492 382,492 Z" id="Path"></path>
                    <path d="M482,0 L130,0 C124.476562,0 120,4.476562 120,10 C120,15.523438 124.476562,20 130,20 L482,20 C487.515625,20 492,24.484375 492,30 L492,482 C492,487.515625 487.515625,492 482,492 L462,492 C456.476562,492 452,496.476562 452,502 C452,507.523438 456.476562,512 462,512 L482,512 C498.542969,512 512,498.539062 512,482 L512,30 C512,13.457031 498.542969,0 482,0 Z" id="Path"></path>
                    <path d="M123.25,176.75 C152.335938,176.75 176,153.085938 176,124 C176,94.910156 152.335938,71.25 123.25,71.25 C94.160156,71.25 70.5,94.914062 70.5,124 C70.5,153.085938 94.160156,176.75 123.25,176.75 Z M123.25,91.25 C141.308594,91.25 156,105.941406 156,124 C156,142.058594 141.308594,156.75 123.25,156.75 C105.191406,156.75 90.5,142.058594 90.5,124 C90.5,105.941406 105.191406,91.25 123.25,91.25 Z" id="Shape"></path>
                    <path d="M344.25,181.75 C322.148438,181.75 300.816406,189.4375 283.75,203.023438 L283.75,196.75 C283.75,191.226562 279.269531,186.75 273.75,186.75 L204,186.75 C198.476562,186.75 194,191.226562 194,196.75 L194,430.75 C194,436.273438 198.476562,440.75 204,440.75 L277.5,440.75 C283.019531,440.75 287.5,436.273438 287.5,430.75 L287.5,295.6875 C287.5,279.007812 301.070312,265.4375 317.75,265.4375 C334.429688,265.4375 348,279.007812 348,295.6875 L348,430.75 C348,436.273438 352.476562,440.75 358,440.75 L431.5,440.75 C437.019531,440.75 441.5,436.273438 441.5,430.75 L441.5,279 C441.5,225.375 397.871094,181.75 344.25,181.75 Z M421.5,420.75 L368,420.75 L368,295.6875 C368,267.980469 345.457031,245.4375 317.75,245.4375 C290.039062,245.4375 267.5,267.980469 267.5,295.6875 L267.5,420.75 L214,420.75 L214,206.75 L263.75,206.75 L263.75,227.761719 C263.75,232.089844 266.53125,235.925781 270.648438,237.269531 C274.757812,238.609375 279.273438,237.152344 281.824219,233.65625 C296.410156,213.679688 319.746094,201.75 344.25,201.75 C386.84375,201.75 421.5,236.402344 421.5,279 L421.5,420.75 Z" id="Shape"></path>
                    <path d="M86.5,186.75 C80.976562,186.75 76.5,191.226562 76.5,196.75 L76.5,430.75 C76.5,436.273438 80.976562,440.75 86.5,440.75 L160,440.75 C165.519531,440.75 170,436.273438 170,430.75 L170,196.75 C170,191.226562 165.519531,186.75 160,186.75 L86.5,186.75 Z M150,420.75 L96.5,420.75 L96.5,206.75 L150,206.75 L150,420.75 Z" id="Shape"></path>
                    <path d="M90.003906,20 C95.523438,20 100.003906,15.523438 100.003906,10 C100.003906,4.476562 95.523438,0 90.003906,0 L89.996094,0 C84.472656,0 80,4.476562 80,10 C80,15.523438 84.480469,20 90.003906,20 Z" id="Path"></path>
                    <path d="M422.003906,492 L421.996094,492 C416.472656,492 412,496.476562 412,502 C412,507.523438 416.480469,512 422.003906,512 C427.527344,512 432.003906,507.523438 432.003906,502 C432.003906,496.476562 427.527344,492 422.003906,492 L422.003906,492 Z" id="Path"></path>
                </g>
            </g>
        </g>
    </g>
</svg>