<?xml version="1.0" encoding="UTF-8"?>
<svg width="512px" height="512px" viewBox="0 0 512 512" version="1.1" xmlns="http://www.w3.org/2000/svg" xmlns:xlink="http://www.w3.org/1999/xlink">
    <!-- Generator: Sketch 63.1 (92452) - https://sketch.com -->
    <title>medium-icon</title>
    <desc>Created with Sketch.</desc>
    <g id="Page-v3" stroke="none" stroke-width="1" fill="none" fill-rule="evenodd">
        <g id="social" transform="translate(-1758.000000, -155.000000)" fill="#000000" fill-rule="nonzero">
            <g transform="translate(222.000000, 155.000000)" id="medium">
                <g transform="translate(1535.000000, 0.000000)">
                    <path d="M482,0 L30,0 C13.458,0 0,13.458 0,30 L0,482 C0,498.542 13.458,512 30,512 L482,512 C498.542,512 512,498.542 512,482 L512,30 C512,13.458 498.542,0 482,0 Z M492,482 C492,487.514 487.514,492 482,492 L30,492 C24.486,492 20,487.514 20,482 L20,30 C20,24.486 24.486,20 30,20 L482,20 C487.514,20 492,24.486 492,30 L492,482 Z" id="Shape"></path>
                    <path d="M402.74,251.93 C400.88,250.069 398.3,249 395.67,249 C393.03,249 390.46,250.07 388.6,251.93 C386.73,253.79 385.67,256.37 385.67,259 C385.67,261.63 386.73,264.21 388.6,266.069 C390.46,267.93 393.03,269 395.67,269 C398.3,269 400.88,267.93 402.74,266.069 C404.6,264.21 405.67,261.63 405.67,259 C405.67,256.37 404.6,253.791 402.74,251.93 Z" id="Path"></path>
                    <path d="M405.667,353.807 L405.667,310.333 C405.667,304.811 401.19,300.333 395.667,300.333 C390.144,300.333 385.667,304.811 385.667,310.333 L385.667,357.667 C385.667,360.151 386.592,362.546 388.261,364.386 L402.426,380 L315.643,380 L330.54,362.902 C332.126,361.081 333,358.748 333,356.333 L333,182.396 C333,181.688 332.924,180.998 332.784,180.332 L349.823,136.833 L403.025,136.833 L388.596,151.262 C386.721,153.138 385.667,155.681 385.667,158.333 L385.667,203 C385.667,208.522 390.144,213 395.667,213 C401.19,213 405.667,208.522 405.667,203 L405.667,162.476 L434.238,133.905 C437.098,131.045 437.953,126.744 436.405,123.007 C434.857,119.271 431.211,116.834 427.166,116.834 L343,116.834 C338.79,116.834 335.195,119.439 333.72,123.122 C333.71,123.146 333.699,123.162 333.689,123.187 L273.258,277.465 L202.074,123.798 C200.437,120.262 196.896,118 193,118 L92,118 C88.053,118 84.475,120.322 82.867,123.927 C81.259,127.532 81.923,131.745 84.56,134.682 L130.5,185.832 L130.5,325.509 L84.172,383.777 C81.783,386.782 81.325,390.888 82.993,394.346 C84.662,397.803 88.162,400 92,400 L191.667,400 C195.553,400 199.087,397.749 200.73,394.227 C202.373,390.706 201.826,386.551 199.329,383.574 L150.5,325.361 L150.5,226.756 L229.285,394.256 C230.934,397.762 234.459,400 238.334,400 L239.917,400 C244.032,400 247.727,397.479 249.228,393.647 L313,230.84 L313,352.588 L286.127,383.431 C283.552,386.387 282.941,390.575 284.564,394.142 C286.188,397.71 289.746,400 293.666,400 L425,400 C428.957,400 432.541,397.668 434.143,394.05 C435.746,390.433 435.064,386.211 432.406,383.281 L405.667,353.807 Z M170.227,380 L112.727,380 L140.707,344.808 L170.227,380 Z M238.359,366.559 L149.549,177.745 C149.134,176.862 148.592,176.045 147.94,175.319 L114.423,138 L186.611,138 L262.676,302.203 C262.831,302.538 263.002,302.86 263.188,303.169 L238.359,366.559 Z" id="Shape"></path>
                    <path d="M319.5,48 L238,48 C232.477,48 228,52.478 228,58 C228,63.522 232.477,68 238,68 L319.5,68 C325.023,68 329.5,63.522 329.5,58 C329.5,52.478 325.023,48 319.5,48 Z" id="Path"></path>
                    <path d="M192.618,48 L192.5,48 C186.977,48 182.5,52.478 182.5,58 C182.5,63.522 186.977,68 192.5,68 L192.618,68 C198.141,68 202.618,63.522 202.618,58 C202.618,52.478 198.141,48 192.618,48 Z" id="Path"></path>
                </g>
            </g>
        </g>
    </g>
</svg>