<?xml version="1.0" encoding="UTF-8"?>
<svg width="512px" height="512px" viewBox="0 0 512 512" version="1.1" xmlns="http://www.w3.org/2000/svg" xmlns:xlink="http://www.w3.org/1999/xlink">
    <!-- Generator: Sketch 63.1 (92452) - https://sketch.com -->
    <title>medium-ico-hover</title>
    <desc>Created with Sketch.</desc>
    <g id="Page-v3" stroke="none" stroke-width="1" fill="none" fill-rule="evenodd">
        <g id="social" transform="translate(-1758.000000, -931.000000)" fill-rule="nonzero">
            <g id="social-over" transform="translate(222.000000, 931.000000)">
                <g id="medium-over" transform="translate(1535.000000, 2.000000)">
                    <path d="M482,502 L30,502 C18.954,502 10,493.046 10,482 L10,30 C10,18.954 18.954,10 30,10 L482,10 C493.046,10 502,18.954 502,30 L502,482 C502,493.046 493.046,502 482,502 Z" id="Path" fill="#1ABC9C"></path>
                    <g id="Group" transform="translate(92.000000, 126.000000)" fill="#FFFFFF">
                        <polygon id="Path" points="181.996 176.998 101 2 0 2 48.5 56 146.333 264 147.917 264"></polygon>
                        <polyline id="Path" points="231 56.395 231 230.333 201.667 264 333 264 303.667 231.667 303.667 32.333 335.167 0.833 251 0.833"></polyline>
                        <polygon id="Path" points="0 264 99.667 264 48.5 203"></polygon>
                    </g>
                    <path d="M482,512 L30,512 C13.458,512 0,498.542 0,482 L0,30 C0,13.458 13.458,0 30,0 L482,0 C498.542,0 512,13.458 512,30 L512,482 C512,498.542 498.542,512 482,512 Z M30,20 C24.486,20 20,24.486 20,30 L20,482 C20,487.514 24.486,492 30,492 L482,492 C487.514,492 492,487.514 492,482 L492,30 C492,24.486 487.514,20 482,20 L30,20 Z" id="Shape" fill="#000000"></path>
                    <path d="M395.67,269 C393.03,269 390.46,267.93 388.6,266.069 C386.73,264.21 385.67,261.63 385.67,259 C385.67,256.37 386.73,253.79 388.6,251.93 C390.46,250.07 393.03,249 395.67,249 C398.3,249 400.88,250.069 402.74,251.93 C404.6,253.791 405.67,256.37 405.67,259 C405.67,261.63 404.6,264.21 402.74,266.069 C400.88,267.93 398.3,269 395.67,269 Z" id="Path" fill="#000000"></path>
                    <path d="M405.667,353.807 L405.667,310.333 C405.667,304.811 401.19,300.333 395.667,300.333 C390.144,300.333 385.667,304.811 385.667,310.333 L385.667,357.667 C385.667,360.151 386.592,362.546 388.261,364.386 L402.426,380 L315.643,380 L330.54,362.902 C332.126,361.081 333,358.748 333,356.333 L333,182.396 C333,181.688 332.924,180.998 332.784,180.332 L349.823,136.833 L403.025,136.833 L388.596,151.262 C386.721,153.138 385.667,155.681 385.667,158.333 L385.667,203 C385.667,208.522 390.144,213 395.667,213 C401.19,213 405.667,208.522 405.667,203 L405.667,162.476 L434.238,133.905 C437.098,131.045 437.953,126.744 436.405,123.007 C434.857,119.271 431.211,116.834 427.166,116.834 L343,116.834 C338.79,116.834 335.195,119.439 333.72,123.122 C333.71,123.146 333.699,123.162 333.689,123.187 L273.258,277.465 L202.074,123.798 C200.437,120.262 196.896,118 193,118 L92,118 C88.053,118 84.475,120.322 82.867,123.927 C81.259,127.532 81.923,131.745 84.56,134.682 L130.5,185.832 L130.5,325.509 L84.172,383.777 C81.783,386.782 81.325,390.888 82.993,394.346 C84.662,397.803 88.162,400 92,400 L191.667,400 C195.553,400 199.087,397.749 200.73,394.227 C202.373,390.706 201.826,386.551 199.329,383.574 L150.5,325.361 L150.5,226.756 L229.285,394.256 C230.934,397.762 234.459,400 238.334,400 L239.917,400 C244.032,400 247.727,397.479 249.228,393.647 L313,230.84 L313,352.588 L286.127,383.431 C283.552,386.387 282.941,390.575 284.564,394.142 C286.188,397.71 289.746,400 293.666,400 L425,400 C428.957,400 432.541,397.668 434.143,394.05 C435.746,390.433 435.064,386.211 432.406,383.281 L405.667,353.807 Z M170.227,380 L112.727,380 L140.707,344.808 L170.227,380 Z M238.359,366.559 L149.549,177.745 C149.134,176.862 148.592,176.045 147.94,175.319 L114.423,138 L186.611,138 L262.676,302.203 C262.831,302.538 263.002,302.86 263.188,303.169 L238.359,366.559 Z" id="Shape" fill="#000000"></path>
                    <path d="M319.5,68 L238,68 C232.477,68 228,63.522 228,58 C228,52.478 232.477,48 238,48 L319.5,48 C325.023,48 329.5,52.478 329.5,58 C329.5,63.522 325.023,68 319.5,68 Z" id="Path" fill="#000000"></path>
                    <path d="M192.618,68 L192.5,68 C186.977,68 182.5,63.522 182.5,58 C182.5,52.478 186.977,48 192.5,48 L192.618,48 C198.141,48 202.618,52.478 202.618,58 C202.618,63.522 198.141,68 192.618,68 Z" id="Path" fill="#000000"></path>
                </g>
            </g>
        </g>
    </g>
</svg>