<?xml version="1.0" encoding="UTF-8"?>
<svg width="512px" height="512px" viewBox="0 0 512 512" version="1.1" xmlns="http://www.w3.org/2000/svg" xmlns:xlink="http://www.w3.org/1999/xlink">
    <!-- Generator: Sketch 63.1 (92452) - https://sketch.com -->
    <title>twitter-icon</title>
    <desc>Created with Sketch.</desc>
    <g id="Page-v3" stroke="none" stroke-width="1" fill="none" fill-rule="evenodd">
        <g id="social" transform="translate(-222.000000, -155.000000)" fill="#000000" fill-rule="nonzero">
            <g transform="translate(222.000000, 155.000000)" id="twitter">
                <g transform="translate(0.000000, 46.000000)">
                    <path d="M266.492188,379.847656 C195.214844,408.675781 117.566406,405.558594 48.464844,372.078125 C119.492188,366.839844 162.355469,330.460938 164.441406,328.65625 C167.546875,325.960938 168.691406,321.640625 167.320312,317.761719 C165.949219,313.882812 162.339844,311.242188 158.230469,311.105469 C130.058594,310.148438 107.339844,299.546875 90.707031,279.59375 C85.625,273.496094 81.878906,267.386719 79.214844,262.242188 C97.132812,262.128906 110.660156,258.988281 111.382812,258.820312 C115.878906,257.753906 119.0625,253.746094 119.078125,249.125 C119.097656,244.503906 115.945312,240.472656 111.457031,239.375 C56.707031,225.96875 43.175781,187.800781 39.984375,166.117188 C57.398438,172.484375 72.542969,172.269531 73.363281,172.253906 C77.59375,172.164062 81.3125,169.421875 82.644531,165.40625 C83.976562,161.386719 82.636719,156.964844 79.296875,154.367188 C28.765625,115.015625 37.5,68.71875 45.777344,46.777344 C52.679688,54.070312 60.300781,61.328125 68.554688,68.457031 C72.734375,72.070312 79.046875,71.609375 82.660156,67.429688 C86.269531,63.25 85.8125,56.9375 81.632812,53.328125 C69.859375,43.152344 59.503906,32.761719 50.851562,22.441406 C48.785156,19.976562 45.660156,18.652344 42.457031,18.890625 C39.25,19.125 36.351562,20.890625 34.667969,23.628906 C34.148438,24.472656 21.9375,44.621094 19.804688,72.691406 C18.300781,92.484375 21.707031,119.148438 41.941406,145.332031 C39.433594,144.203125 36.910156,142.882812 34.441406,141.351562 C31.480469,139.515625 27.773438,139.351562 24.664062,140.925781 C21.550781,142.496094 19.484375,145.574219 19.203125,149.050781 C19.132812,149.945312 17.554688,171.265625 27.570312,195.390625 C33.699219,210.164062 45.0625,227.902344 66.078125,241.667969 C65.730469,241.636719 65.386719,241.601562 65.039062,241.5625 C61.753906,241.214844 58.511719,242.5 56.371094,245.007812 C54.226562,247.515625 53.457031,250.917969 54.3125,254.105469 C54.519531,254.875 59.558594,273.148438 74.742188,291.671875 C85.578125,304.894531 103.355469,320.25 130.542969,327.289062 C107.277344,340.210938 65.574219,356.859375 10.933594,351.738281 C6.363281,351.320312 2.085938,354.050781 0.566406,358.386719 C-0.957031,362.71875 0.671875,367.53125 4.507812,370.050781 C54.417969,402.847656 110.21875,419.539062 166.292969,419.539062 C202.585938,419.539062 239,412.542969 273.988281,398.390625 C279.109375,396.320312 281.582031,390.492188 279.511719,385.371094 C277.441406,380.25 271.613281,377.78125 266.492188,379.847656 L266.492188,379.847656 Z" id="Path"></path>
                    <path d="M509.363281,51.09375 C506.464844,47.941406 501.886719,46.984375 497.96875,48.707031 C492.160156,51.265625 486.503906,53.371094 481.1875,55.105469 C497.632812,35.292969 498.988281,19.878906 499.097656,17.582031 C499.285156,13.769531 497.28125,10.183594 493.933594,8.339844 C490.589844,6.5 486.488281,6.722656 483.363281,8.917969 C463.566406,22.828125 438.363281,29.46875 427.441406,31.304688 C406.773438,11.398438 379.78125,0.5 350.886719,0.5 C289.941406,0.5 240.359375,50.082031 240.359375,111.027344 C240.359375,115.253906 240.601562,119.484375 241.082031,123.679688 C205.960938,124.359375 170.417969,109.984375 145.828125,97.109375 C140.933594,94.546875 134.890625,96.441406 132.328125,101.332031 C129.765625,106.226562 131.660156,112.269531 136.550781,114.832031 C166.085938,130.289062 210.414062,147.703125 253.867188,142.878906 C256.6875,142.566406 259.246094,141.066406 260.898438,138.753906 C262.546875,136.445312 263.140625,133.542969 262.523438,130.769531 C261.085938,124.3125 260.359375,117.667969 260.359375,111.027344 C260.359375,61.109375 300.96875,20.5 350.886719,20.5 C375.953125,20.5 399.269531,30.515625 416.542969,48.707031 C418.660156,50.9375 421.640625,52.03125 424.605469,51.785156 C431.21875,51.367188 448.675781,47.953125 467.449219,40.125 C461.785156,47.445312 453.390625,55.90625 440.972656,64.671875 C437.300781,67.265625 435.808594,71.992188 437.328125,76.222656 C438.851562,80.457031 443.007812,83.152344 447.492188,82.8125 C448.199219,82.757812 459.175781,81.878906 474.992188,77.765625 C466.261719,87.246094 456.074219,96.070312 445.964844,102.640625 C443.125,104.488281 441.414062,107.640625 441.414062,111.027344 C441.414062,203.257812 401.996094,287.125 333.261719,341.121094 C328.921875,344.53125 328.164062,350.816406 331.578125,355.160156 C333.550781,357.671875 336.484375,358.984375 339.449219,358.984375 C341.609375,358.984375 343.789062,358.285156 345.621094,356.847656 C380.71875,329.273438 409.703125,293.378906 429.4375,253.039062 C449.914062,211.183594 460.648438,165.226562 461.375,116.355469 C481.375,102.269531 500.410156,81.660156 510.777344,62.648438 C512.828125,58.890625 512.257812,54.246094 509.363281,51.09375 L509.363281,51.09375 Z" id="Path"></path>
                    <path d="M301.527344,362.707031 L301.519531,362.710938 C296.65625,365.332031 294.839844,371.390625 297.457031,376.253906 C299.265625,379.609375 302.710938,381.515625 306.273438,381.515625 C307.875,381.515625 309.5,381.128906 311.007812,380.316406 C315.871094,377.699219 317.6875,371.632812 315.070312,366.773438 C312.453125,361.910156 306.386719,360.089844 301.527344,362.707031 L301.527344,362.707031 Z" id="Path"></path>
                    <path d="M101.148438,93.523438 C102.882812,94.722656 104.867188,95.300781 106.828125,95.300781 C110,95.300781 113.117188,93.796875 115.058594,90.992188 C118.203125,86.449219 117.070312,80.222656 112.53125,77.078125 L112.523438,77.074219 C107.984375,73.929688 101.757812,75.066406 98.613281,79.605469 C95.46875,84.148438 96.605469,90.378906 101.148438,93.523438 Z" id="Path"></path>
                </g>
            </g>
        </g>
    </g>
</svg>