<?xml version="1.0" encoding="UTF-8"?>
<svg width="1000px" height="1000px" viewBox="0 0 1000 1000" version="1.1" xmlns="http://www.w3.org/2000/svg" xmlns:xlink="http://www.w3.org/1999/xlink">
    <!-- Generator: Sketch 63.1 (92452) - https://sketch.com -->
    <title>img/logo-portfolio-1000x1000</title>
    <desc>Created with Sketch.</desc>
    <g id="Page-v3" stroke="none" stroke-width="1" fill="none" fill-rule="evenodd">
        <g id="img/logo-portfolio-1000x1000">
            <rect id="Rectangle-Copy-5" fill="#1ABC9C" x="0" y="0" width="1000" height="1000"></rect>
            <path d="M478.20346,723.305121 C530.540777,723.305121 569.793766,715.854948 595.962424,700.954601 C622.131083,686.054255 635.215412,667.030997 635.215412,643.884828 C635.215412,592.673929 592.420258,567.068479 506.829949,567.068479 L506.829949,567.068479 L459.119134,567.068479 C388.56496,567.068479 334.203548,551.734142 296.034896,521.065468 C257.866245,490.396794 238.781919,448.878353 238.781919,396.510145 C238.781919,347.035208 261.046966,305.806095 305.577059,272.822804 C350.107153,239.839513 411.40832,223.347867 489.480562,223.347867 C540.08294,223.347867 587.504598,230.653377 631.745535,245.264396 C675.986472,259.875415 712.853919,280.489972 742.347877,307.108067 L742.347877,307.108067 L767.504488,288.446468 C735.118966,258.067121 694.637063,234.414629 646.058779,217.488993 C597.480496,200.563357 545.287756,192.100539 489.480562,192.100539 C445.239625,192.100539 405.046878,197.525422 368.902322,208.375189 C332.757766,219.224956 303.04694,233.980638 279.769846,252.642237 C256.492752,271.303836 238.637341,292.931038 226.203614,317.523843 C213.769886,342.116648 207.553023,368.445415 207.553023,396.510145 C207.553023,457.847493 229.384335,506.816107 273.046959,543.415987 C316.709583,580.015867 378.733641,598.315807 459.119134,598.315807 L459.119134,598.315807 L508.564887,598.315807 C543.841974,598.315807 568.564851,601.787733 582.733517,608.731584 C596.902183,615.675434 603.986516,627.393182 603.986516,643.884828 C603.986516,658.061857 593.86604,669.634941 573.625089,678.604082 C553.384137,687.573222 521.576928,692.057793 478.20346,692.057793 C410.540851,692.057793 358.637268,679.616727 322.492712,654.734595 L322.492712,654.734595 L297.769835,673.830184 C318.299943,689.743176 344.324024,701.967246 375.842077,710.502396 C407.36013,719.037546 441.480591,723.305121 478.20346,723.305121 Z M478.20346,848.294434 C522.444397,848.294434 562.637143,842.869551 598.7817,832.019784 C634.926256,821.170017 664.637081,806.414335 687.914175,787.752736 C711.19127,769.091137 729.04668,747.463935 741.480408,722.87113 C753.914135,698.278326 760.130999,671.949558 760.130999,643.884828 C760.130999,582.54748 738.299687,533.578866 694.637063,496.978986 C650.974439,460.379106 588.95038,442.079166 508.564887,442.079166 L508.564887,442.079166 L459.119134,442.079166 C423.842047,442.079166 399.119171,438.60724 384.950505,431.663389 C370.781839,424.719539 363.697506,413.001791 363.697506,396.510145 C363.697506,382.333116 373.817982,370.760032 394.058933,361.790891 C414.299885,352.821751 446.107094,348.33718 489.480562,348.33718 C557.143171,348.33718 609.046754,360.778246 645.19131,385.660378 L645.19131,385.660378 L669.914186,366.564789 C649.384078,350.651797 623.359998,338.427727 591.841945,329.892577 C560.323892,321.357427 526.203431,317.089852 489.480562,317.089852 C437.143244,317.089852 397.890256,324.540025 371.721597,339.440372 C345.552939,354.340718 332.468609,373.363976 332.468609,396.510145 C332.468609,447.721044 374.685451,473.326494 459.119134,473.326494 L459.119134,473.326494 L508.564887,473.326494 C579.119061,473.326494 633.480474,488.660831 671.649125,519.329505 C709.817777,549.998179 728.902102,591.51662 728.902102,643.884828 C728.902102,693.359765 706.637056,734.588878 662.106962,767.57217 C617.576869,800.555461 556.275702,817.047106 478.20346,817.047106 C427.601081,817.047106 380.179423,809.741596 335.938487,795.130577 C291.69755,780.519558 254.830102,759.905001 225.336144,733.286906 L225.336144,733.286906 L200.179533,751.948505 C232.565056,782.327852 273.046959,805.980344 321.625242,822.90598 C370.203526,839.831616 422.396265,848.294434 478.20346,848.294434 Z" id="s" fill="#CAEEE6" fill-rule="nonzero"></path>
        </g>
    </g>
</svg>